<?xml version="1.0" encoding="UTF-8" standalone="no"?>
<!-- Created with Inkscape (http://www.inkscape.org/) -->

<svg
   xmlns:dc="http://purl.org/dc/elements/1.1/"
   xmlns:cc="http://creativecommons.org/ns#"
   xmlns:rdf="http://www.w3.org/1999/02/22-rdf-syntax-ns#"
   xmlns:svg="http://www.w3.org/2000/svg"
   xmlns="http://www.w3.org/2000/svg"
   xmlns:sodipodi="http://sodipodi.sourceforge.net/DTD/sodipodi-0.dtd"
   xmlns:inkscape="http://www.inkscape.org/namespaces/inkscape"
   width="203.97632mm"
   height="109.57343mm"
   viewBox="0 0 203.97632 109.57343"
   version="1.1"
   id="svg1135"
   inkscape:version="0.92.2 (5c3e80d, 2017-08-06)"
   sodipodi:docname="mieuxvoter.svg">
  <defs
     id="defs1129" />
  <sodipodi:namedview
     id="base"
     pagecolor="#ffffff"
     bordercolor="#666666"
     borderopacity="1.0"
     inkscape:pageopacity="0.0"
     inkscape:pageshadow="2"
     inkscape:zoom="0.35"
     inkscape:cx="-228.81868"
     inkscape:cy="-138.50541"
     inkscape:document-units="mm"
     inkscape:current-layer="layer1"
     showgrid="false"
     inkscape:window-width="2560"
     inkscape:window-height="1330"
     inkscape:window-x="-12"
     inkscape:window-y="-12"
     inkscape:window-maximized="1"
     fit-margin-top="0"
     fit-margin-left="0"
     fit-margin-right="0"
     fit-margin-bottom="0" />
  <metadata
     id="metadata1132">
    <rdf:RDF>
      <cc:Work
         rdf:about="">
        <dc:format>image/svg+xml</dc:format>
        <dc:type
           rdf:resource="http://purl.org/dc/dcmitype/StillImage" />
        <dc:title></dc:title>
      </cc:Work>
    </rdf:RDF>
  </metadata>
  <g
     inkscape:label="Layer 1"
     inkscape:groupmode="layer"
     id="layer1"
     transform="translate(-3.0892276,-2.6136748)">
    <path
       id="path54"
       style="fill:#2943a0;fill-opacity:1;fill-rule:nonzero;stroke:none;stroke-width:0.08994776"
       d="M 62.08865,38.607153 H 48.20612 V 24.861338 L 39.986779,52.113705 H 25.191456 L 16.971758,24.861338 V 55.659445 H 3.0892276 V 5.718674 H 22.342269 L 32.607208,36.478103 42.835967,5.718674 H 62.08865 v 32.888479"
       inkscape:connector-curvature="0" />
    <path
       id="path56"
       style="fill:#2943a0;fill-opacity:1;fill-rule:nonzero;stroke:none;stroke-width:0.08994776"
       d="M 82.116417,56.862955 H 69.109887 V 20.659891 h 13.00653 z m 0.912078,-46.797119 c 0,4.200554 -3.250714,7.452187 -7.451906,7.452187 -4.201549,0 -7.452263,-3.251633 -7.452263,-7.452187 0,-4.2014466 3.250714,-7.4521612 7.452263,-7.4521612 4.201192,0 7.451906,3.2507146 7.451906,7.4521612"
       inkscape:connector-curvature="0" />
    <path
       id="path58"
       style="fill:#2943a0;fill-opacity:1;fill-rule:nonzero;stroke:none;stroke-width:0.08994776"
       d="m 99.542903,34.761007 h 10.885457 c -0.94894,-2.812676 -2.77578,-4.164603 -5.47961,-4.164603 -2.77667,0 -4.56575,1.351927 -5.405847,4.164603 z m 23.855047,3.981969 c 0,1.242188 -0.11066,3.141893 -0.25635,3.873147 H 99.505116 c 0.877884,2.922416 3.069024,4.383164 6.503214,4.383164 2.33866,0 4.85988,-0.986734 6.83243,-2.922389 l 8.91383,7.453053 c -3.50706,3.798492 -9.20704,6.282844 -16.36599,6.282844 -11.581681,0 -19.326165,-7.525925 -19.326165,-18.740602 0,-11.471049 7.671639,-19.399036 18.813475,-19.399036 10.95922,0 18.48606,7.745403 18.52204,19.069819"
       inkscape:connector-curvature="0" />
    <path
       id="path60"
       style="fill:#2943a0;fill-opacity:1;fill-rule:nonzero;stroke:none;stroke-width:0.08994776"
       d="m 162.66733,41.300198 c 0,11.251571 -7.63566,16.512597 -17.75478,16.512597 -10.11913,0 -17.7539,-5.261026 -17.7539,-16.548574 v -20.60433 h 13.00465 v 19.507857 c 0,3.616801 1.90059,5.553375 4.74925,5.553375 2.85043,0 4.74922,-1.936574 4.74922,-5.553375 V 20.659891 h 13.00556 v 20.640307"
       inkscape:connector-curvature="0" />
    <path
       id="path62"
       style="fill:#2943a0;fill-opacity:1;fill-rule:nonzero;stroke:none;stroke-width:0.08994776"
       d="m 194.64465,38.742976 12.42089,18.119979 h -14.94211 l -6.28376,-9.462498 -6.02739,9.462498 H 164.90793 L 177.54738,38.633237 165.38284,20.659891 h 15.05006 l 5.84481,9.535369 5.77285,-9.535369 h 14.86837 l -12.27428,18.083085"
       inkscape:connector-curvature="0" />
    <path
       id="path64"
       style="fill:#f1455b;fill-opacity:1;fill-rule:nonzero;stroke:none;stroke-width:0.08994776"
       d="M 38.225421,111.23727 H 21.859508 L 8.0662931,73.445719 21.082997,68.983413 30.152969,96.734093 47.542382,45.325358 H 62.045484 L 38.225421,111.23727"
       inkscape:connector-curvature="0" />
    <path
       id="path66"
       style="fill:#2943a0;fill-opacity:1;fill-rule:nonzero;stroke:none;stroke-width:0.08994776"
       d="m 65.523224,93.117293 c 0,4.054839 2.703268,6.977257 6.429808,6.977257 3.725826,0 6.429196,-2.922418 6.429196,-6.977257 0,-4.054839 -2.70337,-6.978147 -6.429196,-6.978147 -3.72654,0 -6.429808,2.923308 -6.429808,6.978147 z m 26.156429,0 c 0,10.996117 -8.365132,19.069817 -19.726621,19.069817 -11.362177,0 -19.727335,-8.0737 -19.727335,-19.069817 0,-10.996117 8.365158,-19.069819 19.727335,-19.069819 11.361489,0 19.726621,8.073702 19.726621,19.069819"
       inkscape:connector-curvature="0" />
    <path
       id="path68"
       style="fill:#2943a0;fill-opacity:1;fill-rule:nonzero;stroke:none;stroke-width:0.08994776"
       d="m 124.57086,86.505232 h -11.76337 v 8.47579 c 0,3.908231 2.04542,5.113528 4.85807,5.113528 2.00944,0 4.20147,-1.242191 5.8817,-2.191139 l 4.34716,10.082249 c -3.6168,2.52033 -7.23268,4.20145 -13.5884,4.20145 -10.30262,0 -14.504068,-6.32063 -14.504068,-15.197562 V 86.505232 H 93.225868 V 75.034208 h 6.576084 V 64.658739 h 13.005538 v 10.375469 h 11.76337 v 11.471024"
       inkscape:connector-curvature="0" />
    <path
       id="path70"
       style="fill:#2943a0;fill-opacity:1;fill-rule:nonzero;stroke:none;stroke-width:0.08994776"
       d="m 141.92718,89.135299 h 10.88548 c -0.94897,-2.812651 -2.7767,-4.164578 -5.47963,-4.164578 -2.77668,0 -4.56575,1.351927 -5.40585,4.164578 z m 23.85504,3.981994 c 0,1.242188 -0.11065,3.141868 -0.25634,3.872255 h -23.63649 c 0.87789,2.922415 3.06902,4.384052 6.50324,4.384052 2.33772,0 4.85896,-0.98673 6.83243,-2.923304 l 8.9138,7.453084 c -3.50706,3.79938 -9.20704,6.28373 -16.36688,6.28373 -11.58079,0 -19.32527,-7.52592 -19.32527,-18.7406 0,-11.471049 7.67164,-19.399036 18.81347,-19.399036 10.95922,0 18.48517,7.745403 18.52204,19.069819"
       inkscape:connector-curvature="0" />
    <path
       id="path72"
       style="fill:#2943a0;fill-opacity:1;fill-rule:nonzero;stroke:none;stroke-width:0.08994776"
       d="m 195.34714,74.412668 -0.73128,13.005535 c -1.49761,-0.402062 -3.61588,-0.8401 -5.69817,-0.8401 -3.6168,0 -5.80793,1.278139 -5.80793,5.260133 V 111.23727 H 170.06733 V 75.034208 h 12.42088 v 3.652777 c 2.00853,-3.214738 5.1864,-4.639511 9.60822,-4.639511 1.42388,0 2.7398,0.255455 3.25071,0.365194"
       inkscape:connector-curvature="0" />
  </g>
</svg>
